<svg width="200" height="60" viewBox="0 0 200 60" fill="none" xmlns="http://www.w3.org/2000/svg">
<path d="M0 0H21.6266L32.4399 34.1223L43.2379 0H65.5374V24.9914L51.3593 46.4957V13.8416L36.8294 59.4502H26.0161L12.1592 16.5488V59.4502H0V0Z" fill="white"/>
<path d="M97.9774 0H83.784L51.3594 49.3252V59.4502H65.5375V46.618L74.6684 34.7953L85.8182 59.4502H101.694L83.784 21.6266L97.9774 0Z" fill="white"/>
<path d="M100.149 0H129.76L121.929 11.991H117.233V59.4502H103.04V11.991H92.2266L100.149 0Z" fill="white"/>
<path d="M200 59.4504H188.103L182.667 48.8391L169.694 23.3689L156.698 48.8391L151.262 59.4504H139.387L144.816 48.8391L169.694 0L194.571 48.8241L200 59.4504Z" fill="#B7B7B7"/>
<path d="M124.029 59.4874V12.053L131.903 0H138.221V59.4874H124.029Z" fill="#B7B7B7"/>
</svg>
